Coordinates
version=1
nRows=26
nColumns=22
inDegrees=yes

Units are S.I. units (second, meters, Newtons, ...)
If the header above contains a line with 'inDegrees', this indicates whether rotational values are in degrees (yes) or radians (no).

endheader
time	pelvis_tilt	pelvis_list	pelvis_rotation	pelvis_tx	pelvis_ty	pelvis_tz	hip_flexion_r	hip_adduction_r	hip_rotation_r	knee_angle_r	ankle_angle_r	subtalar_angle_r	hip_flexion_l	hip_adduction_l	hip_rotation_l	knee_angle_l	ankle_angle_l	subtalar_angle_l	lumbar_extension	lumbar_bending	lumbar_rotation
      2.95000000	     -0.61624582	     -6.23673148	     14.13955632	     -0.07716738	      0.95104977	     -0.29584475	     25.12425173	      2.48111467	     -9.88819668	    -32.50946854	      6.73354113	      1.15754392	     -0.29070915	     -6.45808639	     16.81903532	    -47.20632663	      1.40703140	     13.73089871	     -1.68622977	      6.27140815	     -6.42303269
      2.96000000	     -0.52635171	     -6.43043153	     14.11142101	     -0.06787262	      0.95184461	     -0.29466694	     24.40653022	      2.95963044	     -9.94937105	    -32.34656329	      7.25681148	      0.97632912	      1.46510285	     -6.60917744	     16.28349287	    -50.07403139	      0.73280932	     13.17551307	     -1.66979404	      6.48075884	     -6.31704520
      2.97000000	     -0.42476707	     -6.67190145	     14.06322498	     -0.05869758	      0.95260761	     -0.29337741	     23.65860822	      3.50440112	    -10.00733053	    -32.10793542	      7.73018819	      0.78818981	      3.21604737	     -6.86376475	     15.74921213	    -52.73068813	      0.38647734	     12.29763294	     -1.66734441	      6.72916240	     -6.17755579
      2.98000000	     -0.30810349	     -6.95501793	     13.98746300	     -0.04961433	      0.95336302	     -0.29198896	     22.87681346	      4.11019167	    -10.05437504	    -31.80030754	      8.15896462	      0.61553143	      4.93366352	     -7.21271467	     15.22133072	    -55.13309905	      0.38266853	     11.18684170	     -1.68170610	      7.01295046	     -5.99249916
      2.99000000	     -0.19152732	     -7.25016085	     13.87310418	     -0.04061049	      0.95412970	     -0.29051957	     22.06550003	      4.75073525	    -10.05027522	    -31.42202614	      8.55848938	      0.44797291	      6.60096457	     -7.60912779	     14.70672148	    -57.23888878	      0.67828266	      9.82000918	     -1.70253091	      7.29885672	     -5.76920814
      3.00000000	     -0.07803967	     -7.53949719	     13.72501100	     -0.03167603	      0.95491790	     -0.28901547	     21.22882239	      5.39810516	    -10.00358316	    -30.98883016	      8.93378002	      0.29384250	      8.20271553	     -8.02208478	     14.20835098	    -59.02535555	      1.22299540	      8.32946882	     -1.72618051	      7.57006317	     -5.49576916
      3.01000000	      0.02670865	     -7.80336826	     13.52922549	     -0.02283117	      0.95573170	     -0.28748615	     20.37973326	      6.02564419	     -9.91537165	    -30.52400486	      9.26568792	      0.14646106	      9.72632936	     -8.41943606	     13.71488804	    -60.47884190	      1.95597547	      6.77647525	     -1.75786145	      7.80621286	     -5.16999522
      3.02000000	      0.11328194	     -8.03482333	     13.30392961	     -0.01407309	      0.95658249	     -0.28597906	     19.51355504	      6.62455849	     -9.76441655	    -30.00897505	      9.56998518	     -0.00045399	     11.17920912	     -8.77992894	     13.23733714	    -61.59333755	      2.75817197	      5.24030028	     -1.78313882	      8.00254633	     -4.84295384
      3.03000000	      0.18574190	     -8.23125831	     13.04935348	     -0.00542325	      0.95745659	     -0.28450666	     18.63654597	      7.18638857	     -9.56176372	    -29.46390529	      9.85062087	     -0.14392782	     12.55422740	     -9.09127901	     12.77646534	    -62.37777548	      3.59473775	      3.79938969	     -1.81105353	      8.15896766	     -4.50627404
      3.04000000	      0.24065343	     -8.38163391	     12.76329087	      0.00313174	      0.95835774	     -0.28309438	     17.74882917	      7.69632343	     -9.30172639	    -28.89089224	     10.09943060	     -0.27930037	     13.84215993	     -9.33348347	     12.32448106	    -62.83145362	      4.43917829	      2.50252105	     -1.83918707	      8.26570844	     -4.16267426
      3.05000000	      0.28228789	     -8.48872118	     12.46360360	      0.01158723	      0.95926880	     -0.28176556	     16.85228470	      8.14978090	     -9.00679439	    -28.29907709	     10.33836260	     -0.40908495	     15.04509494	     -9.50630510	     11.88712215	    -62.97150829	      5.26977452	      1.35261729	     -1.86990465	      8.32702149	     -3.83219657
      3.06000000	      0.31355350	     -8.56140585	     12.15226920	      0.01994427	      0.96017461	     -0.28053373	     15.94712912	      8.55252885	     -8.68326199	    -27.69054622	     10.55835569	     -0.52611324	     16.16776384	     -9.61395173	     11.47101292	    -62.82369458	      6.07363196	      0.41787006	     -1.90474902	      8.35623279	     -3.52035781
      3.07000000	      0.31746934	     -8.61877487	     11.82915561	      0.02819383	      0.96103357	     -0.27936696	     15.05631993	      8.92603719	     -8.31346020	    -27.06133752	     10.74970212	     -0.60354282	     17.24616889	     -9.67939894	     11.07315040	    -62.42097595	      6.86031188	     -0.13226206	     -1.92296145	      8.36720298	     -3.21416750
      3.08000000	      0.33251281	     -8.63672056	     11.52717525	      0.03638246	      0.96187258	     -0.27833528	     14.13995041	      9.23735794	     -7.95506006	    -26.42857715	     10.94947719	     -0.70217311	     18.22906962	     -9.68794212	     10.68987540	    -61.76591686	      7.62679618	     -0.66355872	     -1.96306714	      8.34513055	     -2.96378100
      3.09000000	      0.33820681	     -8.63149465	     11.23737426	      0.04449810	      0.96264641	     -0.27740449	     13.22830691	      9.50171069	     -7.61042637	    -25.79572531	     11.14589095	     -0.80094766	     19.15399474	     -9.65700366	     10.31626240	    -60.89599215	      8.36458088	     -1.03610604	     -2.00311527	      8.30128867	     -2.76991399
      3.10000000	      0.31712578	     -8.62770379	     10.96272142	      0.05252530	      0.96329783	     -0.27656409	     12.35263281	      9.73965273	     -7.28934244	    -25.17129809	     11.35237634	     -0.87820161	     20.05615042	     -9.60187340	      9.98113597	    -59.84836369	      9.08786133	     -1.22827871	     -2.01960239	      8.25680800	     -2.57337463
      3.11000000	      0.30479778	     -8.60623269	     10.70499343	      0.06049594	      0.96387482	     -0.27581925	     11.45637879	      9.94637819	     -6.95912996	    -24.53059933	     11.54745986	     -0.95916092	     20.90315641	     -9.53305958	      9.63115038	    -58.65160717	      9.75125704	     -1.34910957	     -2.05519504	      8.19957691	     -2.43276999
      3.12000000	      0.31086739	     -8.57009720	     10.46859023	      0.06844499	      0.96441766	     -0.27518851	     10.52622381	     10.12713692	     -6.61985914	    -23.86905364	     11.72854887	     -1.05727937	     21.66349206	     -9.43390479	      9.31632260	    -57.29546954	     10.30405276	     -1.40592270	     -2.11415935	      8.13506537	     -2.29801389
      3.13000000	      0.28612804	     -8.54453287	     10.24330596	      0.07632127	      0.96477212	     -0.27462910	      9.65600677	     10.28911083	     -6.32430214	    -23.24635659	     11.93825844	     -1.13068334	     22.43434020	     -9.34706378	      8.99070321	    -55.85435192	     10.83768212	     -1.41053627	     -2.14498333	      8.07857758	     -2.20920886
      3.14000000	      0.27381710	     -8.50757415	     10.03630407	      0.08415370	      0.96505264	     -0.27416625	      8.76800993	     10.42710772	     -6.02830159	    -22.61439858	     12.14347971	     -1.19874582	     23.14843807	     -9.23924067	      8.69001956	    -54.32066094	     11.24819162	     -1.37227043	     -2.19654321	      8.01351177	     -2.12270821
      3.15000000	      0.25087838	     -8.47295042	      9.83974221	      0.09193690	      0.96519308	     -0.27380671	      7.90812336	     10.54620703	     -5.75060418	    -22.00876243	     12.36339645	     -1.24967377	     23.84536335	     -9.13206874	      8.38708109	    -52.72811956	     11.57214242	     -1.31680148	     -2.23964102	      7.95655235	     -2.05246951
      3.16000000	      0.22249704	     -8.43841835	      9.64598265	      0.09967482	      0.96520714	     -0.27353747	      7.06845270	     10.64681609	     -5.48643093	    -21.42628162	     12.59380920	     -1.28131587	     24.51644897	     -9.02242740	      8.08700802	    -51.08982178	     11.79051345	     -1.24856134	     -2.28200945	      7.90245927	     -1.97806991
      3.17000000	      0.18250170	     -8.40566291	      9.44841605	      0.10737074	      0.96508458	     -0.27333715	      6.25989968	     10.73206844	     -5.23322024	    -20.87555772	     12.83622604	     -1.29310482	     25.16879564	     -8.91359475	      7.78853188	    -49.41773340	     11.90437174	     -1.17145678	     -2.31621309	      7.85047068	     -1.90436184
      3.18000000	      0.13382625	     -8.37102712	      9.24566346	      0.11503520	      0.96483766	     -0.27322680	      5.47662397	     10.79770784	     -4.98736722	    -20.35489554	     13.08899100	     -1.28800509	     25.79329727	     -8.79857920	      7.49632697	    -47.71425065	     11.90357522	     -1.08006828	     -2.34458197	      7.79984257	     -1.82673256
      3.19000000	      0.07844057	     -8.33134198	      9.03760613	      0.12268375	      0.96447458	     -0.27319820	      4.71613934	     10.84223253	     -4.75033885	    -19.86656297	     13.35380696	     -1.26764125	     26.38161700	     -8.67259366	      7.22053814	    -45.97732557	     11.78373042	     -0.97034604	     -2.36744162	      7.74614904	     -1.74714437
      3.20000000	      0.02060809	     -8.28578820	      8.82769845	      0.13033093	      0.96400491	     -0.27326035	      3.97139734	     10.86664742	     -4.51443035	    -19.40770587	     13.64025394	     -1.22668755	     26.92101149	     -8.53074257	      6.97712015	    -44.19973767	     11.55728392	     -0.83861022	     -2.38687710	      7.68988322	     -1.67600903
